<?xml version="1.0" standalone="no"?>
<!DOCTYPE svg PUBLIC "-//W3C//DTD SVG 20010904//EN"
 "http://www.w3.org/TR/2001/REC-SVG-20010904/DTD/svg10.dtd">
<svg version="1.0" xmlns="http://www.w3.org/2000/svg"
 width="600.000000pt" height="171.000000pt" viewBox="0 0 600.000000 171.000000"
 preserveAspectRatio="xMidYMid meet">

<g transform="translate(0.000000,171.000000) scale(0.100000,-0.100000)"
fill="#000000" stroke="none">
<path d="M3420 1653 c-134 -4 -345 -21 -480 -39 -115 -16 -393 -66 -460 -84
-19 -5 -66 -17 -105 -26 -546 -132 -1253 -420 -1735 -707 -158 -94 -296 -189
-435 -299 -159 -125 -207 -172 -203 -195 3 -18 15 -11 88 54 432 379 1079 725
1820 973 558 187 1006 272 1515 287 888 26 1718 -270 2278 -811 43 -42 76 -76
74 -76 -3 0 -52 15 -109 34 -57 19 -123 37 -146 41 -38 6 -43 5 -40 -10 3 -19
69 -49 238 -106 63 -22 125 -46 137 -54 12 -8 29 -12 37 -9 9 3 30 1 48 -5 17
-6 35 -8 39 -4 4 5 3 42 -2 83 -13 105 -39 304 -39 308 0 1 -7 2 -16 2 -14 0
-16 -9 -10 -72 4 -40 14 -116 22 -168 7 -52 14 -98 14 -102 0 -5 -12 -8 -27
-8 -22 0 -46 19 -113 89 -306 320 -683 558 -1130 714 -391 137 -824 202 -1260
190z"/>
</g>
</svg>
